<svg xmlns="http://www.w3.org/2000/svg" viewBox="0 0 24 24" fill="currentColor">
    <path
        fill-rule="evenodd"
        d="M12 0C5.372 0 0 5.492 0 12.262c0 5.424 3.438 10.024 8.207 11.647.6.112.82-.265.82-.588 0-.292-.01-1.066-.016-2.094-3.337.745-4.04-1.654-4.04-1.654-.546-1.423-1.334-1.802-1.334-1.802-1.091-.77.082-.755.082-.755 1.205.087 1.839 1.261 1.839 1.261 1.073 1.87 2.816 1.331 3.505 1.018.108-.8.42-1.331.764-1.637-2.664-.313-5.466-1.373-5.466-6.11 0-1.35.466-2.453 1.235-3.317-.123-.314-.535-1.573.117-3.282 0 0 1.007-.33 3.302 1.266a11.24 11.24 0 0 1 3.005-.416c1.02.005 2.046.143 3.006.417 2.293-1.597 3.298-1.267 3.298-1.267.655 1.71.243 2.97.12 3.283.77.864 1.233 1.967 1.233 3.317 0 4.751-2.807 5.794-5.48 6.102.431.381.815 1.14.815 2.298 0 1.659-.015 2.998-.015 3.406 0 .326.216.707.825.586C20.566 22.281 24 17.683 24 12.262 24 5.492 18.627 0 12 0Z"
        clip-rule="evenodd"
    />
</svg>

